<?xml version="1.0"?>
<svg width="768" height="510" xmlns="http://www.w3.org/2000/svg" xmlns:svg="http://www.w3.org/2000/svg" enable-background="new 0 0 932 570" version="1.1" xml:space="preserve">
 <style type="text/css">.st0{fill:url(#SVGID_1_);}
	.st1{opacity:0.12;fill:#FFFFFF;enable-background:new    ;}
	.st2{opacity:0.18;fill:#FFFFFF;enable-background:new    ;}
	.st3{opacity:0.43;fill:#FFFFFF;enable-background:new    ;}
	.st4{opacity:0.36;fill:#FFFFFF;enable-background:new    ;}
	.st5{opacity:0.5;}
	.st6{fill:#EDEDEC;}
	.st7{fill:#DBDCDC;}
	.st8{opacity:0.5;fill:#EDEDEC;enable-background:new    ;}
	.st9{opacity:0.5;fill:#DBDCDC;enable-background:new    ;}</style>
 <linearGradient gradientTransform="matrix(1 0 0 -1 0 570)" gradientUnits="userSpaceOnUse" id="SVGID_1_" x1="437.65" x2="437.65" y1="538.02" y2="28.02">
  <stop offset="0" stop-color="#E74646"/>
  <stop offset="1" stop-color="#C93D3D"/>
 </linearGradient>
 <g class="layer">
  <title>Layer 1</title>
  <g id="svg_11">
   <path class="st1" d="m720.08,189.16c-127.07,0 -233.03,-83.77 -254.79,-193.84l-7.85,0l-7.8,0c21.83,118.59 134.78,209.21 270.43,209.21c37.57,0 73.4,-6.96 106.03,-19.53l0,-8.19l0,-8.41c-32.37,13.31 -68.25,20.76 -106.02,20.76z" id="svg_2"/>
   <path class="st2" d="m720.08,131.22c-91.91,0 -169.2,-58.01 -189.95,-135.89l-7.91,0l-7.9,0l-49.03,0c21.76,110.07 127.72,193.84 254.79,193.84c37.77,0 73.64,-7.46 106.03,-20.75l0,-48.13l0,-8.63l0,-8.95c-30.56,18.02 -66.97,28.51 -106.03,28.51z" id="svg_3"/>
   <path class="st3" d="m720.08,65.14c35.74,0 67.96,-13.91 90.47,-36.07c-14.85,-20.44 -38.92,-33.74 -66.12,-33.74l-138.39,0c18.29,40.89 62.5,69.81 114.04,69.81z" id="svg_4"/>
   <path class="st4" d="m818.54,42.66c-1.12,-2.41 -2.35,-4.75 -3.68,-7.02c-1.33,-2.26 -2.77,-4.46 -4.31,-6.58c-22.5,22.16 -54.72,36.07 -90.47,36.07c-51.54,0 -95.75,-28.92 -114.04,-69.81l-8.41,0l-8.22,0l-59.28,0c20.75,77.88 98.04,135.89 189.95,135.89c39.06,0 75.47,-10.49 106.03,-28.52l0,-25.69c0,-12.26 -2.72,-23.89 -7.57,-34.34z" id="svg_5"/>
   <g class="st5" id="svg_6">
    <path class="st6" d="m178.84,193.49l-57.84,0c-1.09,0 -1.97,-0.88 -1.97,-1.97l0,-0.68c0,-1.09 0.88,-1.97 1.97,-1.97l27.32,0c3.83,0 6.93,-3.1 6.93,-6.93l0,-1.34c0,-3.83 -3.1,-6.93 -6.93,-6.93l-60.74,0c-3.83,0 -6.93,3.1 -6.93,6.93l0,1.34c0,3.83 3.1,6.93 6.93,6.93l7.17,0c1.09,0 1.97,0.88 1.97,1.97l0,0.68c0,1.09 -0.88,1.97 -1.97,1.97l-7.17,0c-3.83,0 -6.93,3.1 -6.93,6.93l0,1.34c0,3.83 3.1,6.93 6.93,6.93l91.26,0c3.83,0 6.93,-3.1 6.93,-6.93l0,-1.34c-0.01,-3.83 -3.11,-6.93 -6.93,-6.93z" id="svg_7"/>
    <path class="st7" d="m138.84,180.85l-91.26,0c-4.46,0 -8.09,-3.63 -8.09,-8.09l0,-1.34c0,-4.46 3.63,-8.09 8.09,-8.09l7.17,0c0.44,0 0.81,-0.36 0.81,-0.81l0,-0.69c0,-0.44 -0.36,-0.81 -0.81,-0.81l-7.17,0c-4.46,0 -8.09,-3.63 -8.09,-8.09l0,-1.34c0,-4.46 3.63,-8.09 8.09,-8.09l60.74,0c4.46,0 8.09,3.63 8.09,8.09l0,1.34c0,4.46 -3.63,8.09 -8.09,8.09l-27.32,0c-0.45,0 -0.81,0.36 -0.81,0.81l0,0.69c0,0.44 0.36,0.81 0.81,0.81l57.84,0c4.46,0 8.09,3.63 8.09,8.09l0,1.34c0,4.46 -3.63,8.09 -8.09,8.09zm-91.26,-15.2c-3.18,0 -5.76,2.59 -5.76,5.76l0,1.34c0,3.18 2.59,5.76 5.76,5.76l91.26,0c3.18,0 5.76,-2.59 5.76,-5.76l0,-1.34c0,-3.18 -2.59,-5.76 -5.76,-5.76l-57.84,0c-1.73,0 -3.14,-1.41 -3.14,-3.13l0,-0.69c0,-1.73 1.41,-3.13 3.14,-3.13l27.32,0c3.18,0 5.76,-2.59 5.76,-5.76l0,-1.34c0,-3.18 -2.59,-5.76 -5.76,-5.76l-60.74,0c-3.18,0 -5.76,2.59 -5.76,5.76l0,1.34c0,3.18 2.59,5.76 5.76,5.76l7.17,0c1.73,0 3.13,1.41 3.13,3.13l0,0.69c0,1.73 -1.41,3.13 -3.13,3.13l-7.17,0z" id="svg_8"/>
   </g>
   <path class="st8" d="m592.58,346.49l57.84,0c1.09,0 1.97,-0.88 1.97,-1.97l0,-0.68c0,-1.09 -0.88,-1.97 -1.97,-1.97l-27.32,0c-3.83,0 -6.93,-3.1 -6.93,-6.93l0,-1.34c0,-3.83 3.1,-6.93 6.93,-6.93l60.74,0c3.83,0 6.93,3.1 6.93,6.93l0,1.34c0,3.83 -3.1,6.93 -6.93,6.93l-7.17,0c-1.09,0 -1.97,0.88 -1.97,1.97l0,0.68c0,1.09 0.88,1.97 1.97,1.97l7.17,0c3.83,0 6.93,3.1 6.93,6.93l0,1.34c0,3.83 -3.1,6.93 -6.93,6.93l-91.26,0c-3.83,0 -6.93,-3.1 -6.93,-6.93l0,-1.34c0,-3.83 3.1,-6.93 6.93,-6.93z" id="svg_9"/>
   <path class="st9" d="m626.48,328.76l0,-1.34c0,-4.46 3.63,-8.09 8.09,-8.09l57.84,0c0.45,0 0.81,-0.36 0.81,-0.81l0,-0.69c0,-0.44 -0.36,-0.81 -0.81,-0.81l-27.32,0c-4.46,0 -8.09,-3.63 -8.09,-8.09l0,-1.34c0,-4.46 3.63,-8.09 8.09,-8.09l60.74,0c4.46,0 8.09,3.63 8.09,8.09l0,1.34c0,4.46 -3.63,8.09 -8.09,8.09l-7.17,0c-0.44,0 -0.81,0.36 -0.81,0.81l0,0.69c0,0.44 0.36,0.81 0.81,0.81l7.17,0c4.46,0 8.09,3.63 8.09,8.09l0,1.34c0,4.46 -3.63,8.09 -8.09,8.09l-91.26,0c-4.46,0 -8.09,-3.63 -8.09,-8.09zm92.19,-7.11c-1.73,0 -3.13,-1.41 -3.13,-3.13l0,-0.69c0,-1.73 1.41,-3.13 3.13,-3.13l7.17,0c3.18,0 5.76,-2.59 5.76,-5.76l0,-1.34c0,-3.18 -2.59,-5.76 -5.76,-5.76l-60.74,0c-3.18,0 -5.76,2.59 -5.76,5.76l0,1.34c0,3.18 2.59,5.76 5.76,5.76l27.32,0c1.73,0 3.14,1.41 3.14,3.13l0,0.69c0,1.73 -1.41,3.13 -3.14,3.13l-57.84,0c-3.18,0 -5.76,2.59 -5.76,5.76l0,1.34c0,3.18 2.59,5.76 5.76,5.76l91.26,0c3.18,0 5.76,-2.59 5.76,-5.76l0,-1.34c0,-3.18 -2.59,-5.76 -5.76,-5.76l-7.17,0z" id="svg_10"/>
  </g>
 </g>
</svg>