<?xml version="1.0" encoding="utf-8"?>
<!-- Generator: Adobe Illustrator 27.8.1, SVG Export Plug-In . SVG Version: 6.00 Build 0)  -->
<svg version="1.1" id="레이어_1" xmlns="http://www.w3.org/2000/svg" xmlns:xlink="http://www.w3.org/1999/xlink" x="0px"
	 y="0px" viewBox="0 0 133 70.2" style="enable-background:new 0 0 133 70.2;" xml:space="preserve">
<style type="text/css">
	.st0{fill:#CF4844;}
	.st1{fill:#FFFFFF;}
</style>
<g>
	<path class="st0" d="M115.2,69.1H17.8C8.5,69.1,1,61.6,1,52.3V17.9C1,8.6,8.5,1.1,17.8,1.1h97.3c9.3,0,16.8,7.5,16.8,16.8v34.3
		C132,61.6,124.5,69.1,115.2,69.1z"/>
	<path class="st1" d="M56.6,22.3v21.3c-1.1-0.7-2.5-1.1-3.9-1.1c-4.1,0-7.5,3.4-7.5,7.5s3.4,7.5,7.5,7.5s7.5-3.4,7.5-7.5V31.8
		l18.3-7.1v13.2c-1.1-0.7-2.5-1.1-3.9-1.1c-4.1,0-7.5,3.4-7.5,7.5s3.4,7.5,7.5,7.5c4.1,0,7.5-3.4,7.5-7.5V12.4L56.6,22.3z
		 M52.6,53.9c-2.2,0-3.9-1.8-3.9-3.9c0-2.2,1.8-3.9,3.9-3.9c2.2,0,3.9,1.8,3.9,3.9C56.6,52.1,54.8,53.9,52.6,53.9z M60.1,28v-3.3
		l18.3-7.1v3.3L60.1,28z M74.5,48.2c-2.2,0-3.9-1.8-3.9-3.9c0-2.2,1.8-3.9,3.9-3.9c2.2,0,3.9,1.8,3.9,3.9
		C78.5,46.4,76.7,48.2,74.5,48.2z"/>
</g>
<path class="st0" d="M115.2,69.1H17.8C8.6,69.1,1,61.6,1,52.3V17.9C1,8.6,8.6,1.1,17.8,1.1h97.3c9.3,0,16.8,7.5,16.8,16.8v34.3
	C132,61.6,124.5,69.1,115.2,69.1z"/>
<g>
	<path class="st1" d="M70.7,12.6c-0.3,0-0.6,0-0.9,0c-0.3,0-0.6,0-0.9,0c-11.7,0.6-18.3,13.8-12.3,23.8l13.1,21.7L83,36.4
		C89,26.4,82.4,13.2,70.7,12.6z M69.8,39.2c-6.2,0-11.2-5-11.2-11.2s5-11.2,11.2-11.2S81,21.8,81,28C81,34.2,76,39.2,69.8,39.2z"/>
</g>
<g>
	<path class="st0" d="M115.2,69.1H17.8C8.5,69.1,1,61.6,1,52.3V17.9C1,8.6,8.5,1.1,17.8,1.1h97.3c9.3,0,16.8,7.5,16.8,16.8v34.3
		C132,61.6,124.5,69.1,115.2,69.1z"/>
	<g>
		<g>
			<path class="st1" d="M66.8,56.1c-1.7,0-3.6-0.8-5.7-2.4c-4.4-3.4-11.4-9.5-14.3-11.9l-0.1,0.1c-1.2,1.5-2.9,2.3-4.8,2.3l-4.5,0.6
				v-3.1l4.5-0.6c0.9,0,1.8-0.4,2.4-1.2l2.1-2.6l1.2,1.1c0.1,0.1,9.9,8.6,15.3,12.9c2.3,1.8,3.6,1.8,4.1,1.7
				c0.6-0.1,0.9-0.6,0.9-0.6l0.6-1.2l1.2,0.5c3.8,1.3,4.7-0.5,4.8-0.9l0.5-1.4l1.4,0.4c1.1,0.3,2,0.2,2.6-0.2c0.8-0.5,1-1.6,1-1.6
				l0.2-1.3l1.3,0c1.3,0,2.2-0.4,2.6-1.2c0.4-0.8,0.1-2-0.7-3.1C82.4,40.7,77,36,69.3,29.6c-0.5-0.4-1.1-0.5-1.7-0.3l-0.7,0.2
				c-0.5,0.2-0.8,0.4-1.1,0.8c-1.1,1.5-3,3.4-5.1,3.9c-2.5,0.6-4.7-0.2-5.7-2.3c-1.3-2.5-0.8-6.8,3.4-10.6c6.1-5.4,11.6-4.1,11.9-4
				l0.2,0l12,4.4c1.5-0.8,3.6-2.2,11-2.6l0.2,3.1c-8.6,0.6-10.2,2.5-10.2,2.5l-0.6,0.4L81.9,25l-12.5-4.6c-0.5-0.1-4.5-0.7-9,3.4
				c-2.8,2.5-3.5,5.4-2.7,6.8c0.4,0.7,1.1,1,2.2,0.7c1-0.2,2.2-1.3,3.4-2.8c0.7-0.9,1.6-1.5,2.6-1.9l0.7-0.2
				c1.6-0.5,3.4-0.2,4.7,0.9C76,31.1,84.1,38,86.1,40.4c1.6,2,2,4.4,1.1,6.3c-0.8,1.6-2.3,2.6-4.2,2.9c-0.3,0.8-0.9,1.8-2,2.5
				c-1.1,0.7-2.4,1-3.9,0.8c-0.3,0.4-0.7,0.8-1.2,1.2c-1.1,0.7-2.9,1.4-5.8,0.7c-0.5,0.4-1.2,0.9-2.1,1.1
				C67.5,56.1,67.2,56.1,66.8,56.1z"/>
		</g>
		<g>
			<path class="st1" d="M86.7,43.9l-2-2.3l2.3-2c-0.5-2.7-3.7-10.3-5.9-15.4l2.8-1.3c1.1,2.3,6.3,14,6.3,17.3v0.7L86.7,43.9z"/>
		</g>
		<g>
			<path class="st1" d="M94,44.9c-2.9,0-4.4-0.9-6.6-3.7l2.4-1.9c1.4,1.7,1.5,2.7,4.9,2.5l0.2,3.1C94.6,44.8,94.8,44.9,94,44.9z"/>
		</g>
		<g>
			<path class="st1" d="M80.7,49.3l-9.4-8.8c-0.6-0.6-0.6-1.6-0.1-2.2h0c0.6-0.6,1.6-0.6,2.2-0.1l9.4,8.8L80.7,49.3z"/>
		</g>
		<g>
			<path class="st1" d="M75.2,52.4l-7.5-7c-0.6-0.6-0.7-1.6-0.1-2.2l0,0c0.6-0.6,1.6-0.7,2.2-0.1l7.5,7L75.2,52.4z"/>
		</g>
		<g>
			<path class="st1" d="M68.4,54.2l-4.5-4.5c-0.6-0.6-0.6-1.6,0-2.2l0,0c0.6-0.6,1.6-0.6,2.2,0l4.5,4.5L68.4,54.2z"/>
		</g>
		<g>
			<path class="st1" d="M48.2,39.8l-3-0.6L49,18.6l1-0.2c2.6-0.7,12.6-0.2,13.7-0.1l-0.2,3.1c-3.5-0.2-9.3-0.3-11.9-0.1L48.2,39.8z"
				/>
		</g>
		<g>
			
				<rect x="44.1" y="14.6" transform="matrix(9.950372e-02 -0.995 0.995 9.950372e-02 21.8325 62.8431)" class="st1" width="3.1" height="9.5"/>
		</g>
	</g>
</g>
<path class="st0" d="M115.2,69.1H17.8C8.5,69.1,1,61.6,1,52.3V17.9C1,8.6,8.5,1.1,17.8,1.1h97.3c9.3,0,16.8,7.5,16.8,16.8v34.3
	C132,61.6,124.5,69.1,115.2,69.1z"/>
<g>
	<path class="st1" d="M66,15c-8.6,0-16,5.5-18.7,13.2l-4-0.5l0,0.1l3.3,3.1c-0.1,0.2-0.1,0.5-0.1,0.7L42,32.8l4.2,1.7
		c0,0.1,0,0.3,0,0.4c0,11,8.9,19.9,19.9,19.9h19.9V34.9C85.9,23.9,77,15,66,15z M82,50.8H66c-8.8,0-16-7.2-16-16s7.2-16,16-16
		s16,7.2,16,16V50.8z"/>
	<circle class="st1" cx="60.5" cy="29.7" r="3.3"/>
	<path class="st1" d="M59.4,38l-2.8,1.6c0.2,0.3,4,6.9,11.6,6.9c0.7,0,1.4-0.1,2.2-0.2l-0.5-3.2C63.1,44.2,59.5,38.2,59.4,38z"/>
</g>
</svg>
