<?xml version="1.0" encoding="utf-8"?>
<!-- Generator: Adobe Illustrator 27.8.1, SVG Export Plug-In . SVG Version: 6.00 Build 0)  -->
<svg version="1.1" id="레이어_1" xmlns="http://www.w3.org/2000/svg" xmlns:xlink="http://www.w3.org/1999/xlink" x="0px"
	 y="0px" viewBox="0 0 133 70.2" style="enable-background:new 0 0 133 70.2;" xml:space="preserve">
<style type="text/css">
	.st0{fill:#CF4844;}
	.st1{fill:#FFFFFF;}
</style>
<g>
	<path class="st0" d="M115.2,69.1H17.8C8.5,69.1,1,61.6,1,52.3V17.9C1,8.6,8.5,1.1,17.8,1.1h97.3c9.3,0,16.8,7.5,16.8,16.8v34.3
		C132,61.6,124.5,69.1,115.2,69.1z"/>
	<path class="st1" d="M56.6,22.3v21.3c-1.1-0.7-2.5-1.1-3.9-1.1c-4.1,0-7.5,3.4-7.5,7.5s3.4,7.5,7.5,7.5s7.5-3.4,7.5-7.5V31.8
		l18.3-7.1v13.2c-1.1-0.7-2.5-1.1-3.9-1.1c-4.1,0-7.5,3.4-7.5,7.5s3.4,7.5,7.5,7.5c4.1,0,7.5-3.4,7.5-7.5V12.4L56.6,22.3z
		 M52.6,53.9c-2.2,0-3.9-1.8-3.9-3.9c0-2.2,1.8-3.9,3.9-3.9c2.2,0,3.9,1.8,3.9,3.9C56.6,52.1,54.8,53.9,52.6,53.9z M60.1,28v-3.3
		l18.3-7.1v3.3L60.1,28z M74.5,48.2c-2.2,0-3.9-1.8-3.9-3.9c0-2.2,1.8-3.9,3.9-3.9c2.2,0,3.9,1.8,3.9,3.9
		C78.5,46.4,76.7,48.2,74.5,48.2z"/>
</g>
</svg>
